<?xml version="1.0" encoding="UTF-8" standalone="no"?>
<svg
   xmlns:osb="http://www.openswatchbook.org/uri/2009/osb"
   xmlns:dc="http://purl.org/dc/elements/1.1/"
   xmlns:cc="http://creativecommons.org/ns#"
   xmlns:rdf="http://www.w3.org/1999/02/22-rdf-syntax-ns#"
   xmlns:svg="http://www.w3.org/2000/svg"
   xmlns="http://www.w3.org/2000/svg"
   xmlns:xlink="http://www.w3.org/1999/xlink"
   xmlns:sodipodi="http://sodipodi.sourceforge.net/DTD/sodipodi-0.dtd"
   xmlns:inkscape="http://www.inkscape.org/namespaces/inkscape"
   width="999.99939mm"
   height="282.14529mm"
   viewBox="0 0 999.99939 282.14529"
   version="1.1"
   id="svg8"
   sodipodi:docname="logintoo-logo1.svg"
   inkscape:version="1.0.1 (0767f8302a, 2020-10-17)">
  <defs
     id="defs2">
    <linearGradient
       id="linearGradient2864"
       osb:paint="solid">
      <stop
         style="stop-color:#000080;stop-opacity:1;"
         offset="0"
         id="stop2862" />
    </linearGradient>
    <linearGradient
       inkscape:collect="always"
       xlink:href="#linearGradient46"
       id="linearGradient2886"
       x1="-289.27338"
       y1="516.26587"
       x2="710.72595"
       y2="516.26587"
       gradientUnits="userSpaceOnUse"
       gradientTransform="translate(-110.60758,462.5518)" />
    <linearGradient
       id="linearGradient46"
       x1="16.785"
       x2="196.09"
       y1="44.748001"
       y2="23.823999"
       gradientUnits="userSpaceOnUse">
      <stop
         stop-color="#8e24aa"
         offset="0"
         id="stop2910" />
      <stop
         stop-color="#ff6e40"
         offset="1"
         id="stop2912" />
    </linearGradient>
    <filter
       id="filter899"
       x="-6.7208998e-07"
       y="-5.5941e-06"
       width="1"
       height="1"
       color-interpolation-filters="sRGB">
      <feGaussianBlur
         stdDeviation="5.0174344e-05"
         id="feGaussianBlur2915" />
    </filter>
    <linearGradient
       inkscape:collect="always"
       xlink:href="#linearGradient46"
       id="linearGradient2886-1"
       x1="-314.69427"
       y1="516.41498"
       x2="-180.2045"
       y2="401.12186"
       gradientUnits="userSpaceOnUse"
       gradientTransform="translate(-124.48165,1000.6846)" />
  </defs>
  <sodipodi:namedview
     id="base"
     pagecolor="#ffffff"
     bordercolor="#666666"
     borderopacity="1.0"
     inkscape:pageopacity="0.0"
     inkscape:pageshadow="2"
     inkscape:zoom="0.35"
     inkscape:cx="1202.6522"
     inkscape:cy="556.28169"
     inkscape:document-units="mm"
     inkscape:current-layer="layer1"
     inkscape:document-rotation="0"
     showgrid="false"
     inkscape:window-width="1920"
     inkscape:window-height="1005"
     inkscape:window-x="0"
     inkscape:window-y="0"
     inkscape:window-maximized="1" />
  <metadata
     id="metadata5">
    <rdf:RDF>
      <cc:Work
         rdf:about="">
        <dc:format>image/svg+xml</dc:format>
        <dc:type
           rdf:resource="http://purl.org/dc/dcmitype/StillImage" />
        <dc:title></dc:title>
      </cc:Work>
    </rdf:RDF>
  </metadata>
  <g
     inkscape:label="Layer 1"
     inkscape:groupmode="layer"
     id="layer1"
     transform="translate(399.88139,-837.74589)">
    <g
       aria-label="logintoo"
       id="text835"
       style="font-style:italic;font-weight:bold;font-size:300.955px;line-height:1.25;font-family:Amaranth;-inkscape-font-specification:'Amaranth Bold Italic';letter-spacing:0px;word-spacing:0px;opacity:1;mix-blend-mode:normal;fill:url(#linearGradient2886);fill-opacity:1;fill-rule:nonzero;stroke:none;stroke-width:0;stroke-miterlimit:4;stroke-dasharray:none">
      <path
         d="m -352.71022,1033.925 q 4.40852,-0.7347 6.90668,-0.7347 2.49816,0 2.49816,2.0573 0,4.7024 -17.34018,12.9317 -17.19323,8.0822 -28.21453,8.0822 -11.0213,0 -11.0213,-10.2865 v -2.2043 q 0,-1.9103 6.61278,-27.6267 6.61278,-25.86331 17.92798,-84.20273 11.46215,-58.33942 11.46215,-65.68695 0,-7.49449 -5.73107,-9.99265 -10.1396,-4.55547 -10.1396,-8.52314 0,-1.91036 4.70242,-3.96767 13.37251,-6.02497 34.23951,-6.02497 h 2.64511 q 6.75973,0 6.75973,10.28654 0,6.75973 -4.99632,28.94929 -4.99632,22.0426 -16.01762,78.32471 -10.87435,56.13517 -10.87435,64.21747 0,14.4011 10.58045,14.4011 z"
         style="font-style:italic;font-variant:normal;font-weight:normal;font-stretch:normal;font-family:'Averia Serif Libre';-inkscape-font-specification:'Averia Serif Libre Italic';fill:url(#linearGradient2886);fill-opacity:1;fill-rule:nonzero;stroke:none;stroke-width:0;stroke-miterlimit:4;stroke-dasharray:none"
         id="path841" />
      <path
         d="m -238.6765,931.50042 h -4.26157 q -6.17192,0 -14.10726,4.70242 -7.93534,4.70242 -15.42982,15.57677 -14.98897,21.7487 -14.98897,48.49369 v 7.3476 q 0,15.2828 7.05363,24.8346 7.05363,9.5518 16.01763,9.5518 h 2.93901 q 16.01762,0 30.27184,-21.8956 14.25421,-22.04263 14.25421,-47.17119 v -5.87803 q 0,-13.81336 -6.17192,-24.68771 -6.02498,-10.87435 -15.57678,-10.87435 z m -77.1491,73.62228 v -4.2616 l 0.14695,-2.20422 q 0,-14.10727 6.75973,-30.56574 6.61278,-16.45848 18.07493,-27.92063 23.80601,-23.80601 51.28579,-23.80601 l 2.20426,-0.14695 q 21.4548,0 34.97426,14.40116 13.66641,14.25422 13.66641,37.76633 v 4.40852 q 0,33.06394 -24.09991,59.66194 -9.55179,10.5805 -23.80601,17.7811 -14.25421,7.0536 -28.36148,7.0536 h -2.20426 l -2.20426,-0.147 q -20.57309,0 -33.50475,-15.1359 -12.93166,-15.1359 -12.93166,-36.8846 z"
         style="font-style:italic;font-variant:normal;font-weight:normal;font-stretch:normal;font-family:'Averia Serif Libre';-inkscape-font-specification:'Averia Serif Libre Italic';fill:url(#linearGradient2886);fill-opacity:1;fill-rule:nonzero;stroke:none;stroke-width:0;stroke-miterlimit:4;stroke-dasharray:none"
         id="path843" />
      <path
         d="m -138.89699,982.7862 q 0,6.31888 3.96767,11.31521 3.96766,4.99632 8.08228,4.99632 h 2.79207 q 11.0213,0 21.89565,-14.98897 10.874348,-14.98897 10.874348,-30.41879 0.293901,-2.05731 0.293901,-3.08596 l 0.293901,-5.14328 v -2.05731 q 0,-9.40484 -4.40852,-14.69506 -4.40852,-5.43718 -10.58045,-5.43718 h -2.05731 q -10.28655,0 -20.57309,14.25422 -10.28655,14.10726 -10.28655,28.80233 l -0.2939,2.05731 q 0,1.02865 0,2.05731 l -0.2939,5.14327 v 4.11462 q 0.2939,2.05731 0.2939,3.08596 z m 4.55547,70.5363 h -5.43718 q -10.58044,0 -20.27919,8.6701 -9.55179,8.8171 -9.55179,17.6341 v 4.4085 q 0,9.8457 10.87435,16.4585 10.87435,6.7597 21.89565,6.7597 l 2.35121,0.2939 3.52681,0.147 h 4.70243 q 13.22556,0 25.86332,-6.9067 12.637754,-6.7597 12.637754,-18.2219 v -3.086 q 0,-9.9926 -14.988974,-18.0749 -14.84201,-8.0823 -31.59439,-8.0823 z m 4.55547,-41.4401 q -5.73108,3.5269 -5.73108,9.9927 0,6.3189 25.71637,16.1646 25.716371,9.8457 33.063905,15.5767 12.049955,9.5518 12.049955,24.2469 0,6.7597 -4.702421,15.4298 -4.702422,8.6701 -14.98897,15.2829 -17.487129,11.3152 -45.554709,11.3152 h -8.08229 q -25.42246,0 -40.70534,-9.9927 -15.28287,-9.8457 -15.28287,-23.2182 v -3.5268 q 0,-12.0499 16.45848,-23.806 9.8457,-7.0536 10.4335,-7.7884 0.73475,-0.7347 4.84937,-14.9889 4.26157,-14.2543 8.08229,-19.2506 3.96767,-4.9963 3.96767,-9.1109 l -4.40852,-7.2006 q -1.02866,-1.91037 -4.99633,-11.60912 -3.82071,-9.69874 -3.82071,-19.83834 0,-10.13959 5.87802,-21.60175 5.87803,-11.46215 16.45848,-19.98529 19.10359,-15.42982 45.407757,-15.42982 h 3.673767 l 16.899328,1.32256 q 2.939014,0 7.494485,-0.44086 l 7.347534,-0.8817 h 3.379865 q 12.637758,0 12.637758,8.08229 0,8.81704 -7.641435,8.81704 l -4.40852,-0.5878 q -6.612781,0 -8.376189,4.70242 -1.028655,2.79206 -1.469507,14.10726 -0.881704,23.80601 -13.666413,38.35413 -8.376188,9.69874 -16.017623,13.66641 -7.494487,3.82067 -19.691387,7.34757 -12.19691,3.5268 -14.25422,4.8493 z"
         style="font-style:italic;font-variant:normal;font-weight:normal;font-stretch:normal;font-family:'Averia Serif Libre';-inkscape-font-specification:'Averia Serif Libre Italic';fill:url(#linearGradient2886);fill-opacity:1;fill-rule:nonzero;stroke:none;stroke-width:0;stroke-miterlimit:4;stroke-dasharray:none"
         id="path845" />
      <path
         d="m 25.540827,851.55925 q 5.584126,0 9.845695,4.26157 4.26157,4.26157 4.26157,9.40484 v 3.96767 q -0.440852,1.76341 -0.440852,4.11462 0,2.20426 -4.702422,7.78839 -4.555471,5.58412 -9.110942,5.58412 -0.881704,0.2939 -1.616457,0.2939 l -2.20426,0.2939 H 19.80975 l -0.587802,-0.14695 h -1.175606 q -1.469506,-0.44085 -3.232915,-0.44085 -1.763408,0 -5.8780266,-3.96767 -3.9676683,-4.11462 -3.9676683,-9.84569 v -3.37987 q 0.440852,-1.76341 0.440852,-3.96767 0,-2.20426 4.7024219,-7.78838 4.702421,-5.58413 9.110942,-5.58413 l 3.967668,-0.5878 z M -5.6127167,952.66132 q 0,-7.93534 -6.9066813,-9.69875 -12.196907,-3.08596 -12.196907,-6.02498 0,-6.31888 14.254216,-12.34385 14.4011663,-6.02498 25.863319,-6.02498 h 2.05731 q 9.257892,0 9.257892,11.46215 0,6.31888 -8.963991,45.70166 -8.8170406,39.38283 -8.8170406,45.99553 0,6.6128 2.7920626,9.111 2.939014,2.3512 10.433498,2.3512 7.494485,0 7.494485,2.6451 0,5.4372 -11.609104,10.7274 -21.0139465,9.6987 -34.092557,9.6987 -13.07861,0 -13.07861,-9.2578 v -1.9104 q 0,-4.1146 5.437175,-18.5158 5.584126,-14.4012 8.376189,-24.2469 9.6987443,-35.12117 9.6987443,-49.66928 z"
         style="font-style:italic;font-variant:normal;font-weight:normal;font-stretch:normal;font-family:'Averia Serif Libre';-inkscape-font-specification:'Averia Serif Libre Italic';fill:url(#linearGradient2886);fill-opacity:1;fill-rule:nonzero;stroke:none;stroke-width:0;stroke-miterlimit:4;stroke-dasharray:none"
         id="path847" />
      <path
         d="m 163.2336,958.68629 q 0,-19.69139 -13.22556,-19.69139 -7.05364,0 -16.60543,7.93534 -9.40484,7.78839 -16.75238,19.98529 -7.20058,12.19691 -13.81336,37.61937 -0.44085,1.9104 -4.11462,19.1036 -3.673767,17.0463 -4.555471,19.3975 -4.114619,10.2865 -12.490808,10.2865 -8.376188,0 -12.049955,-6.6128 -3.673767,-6.6127 -3.673767,-16.1645 v -3.5268 q 0,-9.8457 6.61278,-26.0103 6.759731,-16.31154 6.759731,-25.86333 0,-9.55179 -4.40852,-17.92798 -4.40852,-8.52314 -4.40852,-15.13592 0,-6.61278 6.46583,-13.07861 6.465829,-6.46583 14.695067,-6.46583 8.376193,0 13.519463,5.73107 5.29022,5.73108 5.29022,15.72373 0,9.84569 0.44086,9.84569 0.44085,0 11.46215,-10.7274 24.24686,-23.51211 45.99556,-23.65906 25.42247,0 25.42247,29.24319 0,8.96399 -6.75973,38.06022 -6.61278,29.09623 -6.61278,35.26813 0,14.4012 11.0213,14.4012 5.58412,0 5.58412,0.4409 0,1.4695 -4.55547,4.1146 -20.72004,11.756 -32.1822,11.756 -11.3152,0 -11.3152,-16.1645 0,-2.2043 7.05363,-35.5621 7.20059,-33.50477 7.20059,-42.32181 z"
         style="font-style:italic;font-variant:normal;font-weight:normal;font-stretch:normal;font-family:'Averia Serif Libre';-inkscape-font-specification:'Averia Serif Libre Italic';fill:url(#linearGradient2886);fill-opacity:1;fill-rule:nonzero;stroke:none;stroke-width:0;stroke-miterlimit:4;stroke-dasharray:none"
         id="path849" />
      <path
         d="m 297.84042,916.9523 q 14.40116,4.84937 14.40116,10.1396 0,5.14327 -12.63775,7.49448 -12.49081,2.20426 -18.51579,14.69507 -6.02498,12.34386 -11.16825,35.12121 -4.99632,22.63044 -4.99632,32.62304 0,14.5481 10.28654,14.5481 3.82072,0 9.40485,-1.7634 5.73107,-1.7634 9.84569,-1.7634 5.43718,0 5.43718,5.1433 0,6.4658 -15.57677,14.842 -15.57678,8.3762 -26.30417,8.3762 h -2.64512 q -8.96399,0 -14.25421,-7.4945 -5.14328,-7.6414 -5.14328,-19.3975 0,-11.903 5.58413,-40.11752 5.73108,-28.36148 5.73108,-46.43641 0,-4.26157 -5.29023,-7.93534 -5.14327,-3.82071 -5.14327,-5.87802 0,-2.20426 14.98897,-12.34386 3.82071,-2.64511 13.37251,-22.92431 6.75973,-14.25421 16.31152,-14.25421 8.22924,0 8.22924,9.55179 l -1.1756,15.87068 q 0,8.81704 9.25789,11.903 z"
         style="font-style:italic;font-variant:normal;font-weight:normal;font-stretch:normal;font-family:'Averia Serif Libre';-inkscape-font-specification:'Averia Serif Libre Italic';fill:url(#linearGradient2886);fill-opacity:1;fill-rule:nonzero;stroke:none;stroke-width:0;stroke-miterlimit:4;stroke-dasharray:none"
         id="path851" />
      <path
         d="m 404.67361,931.50042 h -4.26157 q -6.17193,0 -14.10727,4.70242 -7.93533,4.70242 -15.42982,15.57677 -14.98897,21.7487 -14.98897,48.49369 v 7.3476 q 0,15.2828 7.05364,24.8346 7.05363,9.5518 16.01762,9.5518 h 2.93901 q 16.01763,0 30.27184,-21.8956 14.25422,-22.04263 14.25422,-47.17119 v -5.87803 q 0,-13.81336 -6.17193,-24.68771 -6.02498,-10.87435 -15.57677,-10.87435 z m -77.14911,73.62228 v -4.2616 l 0.14695,-2.20422 q 0,-14.10727 6.75974,-30.56574 6.61278,-16.45848 18.07493,-27.92063 23.80601,-23.80601 51.28579,-23.80601 l 2.20426,-0.14695 q 21.45479,0 34.97426,14.40116 13.66641,14.25422 13.66641,37.76633 v 4.40852 q 0,33.06394 -24.09991,59.66194 -9.5518,10.5805 -23.80601,17.7811 -14.25422,7.0536 -28.36148,7.0536 h -2.20426 l -2.20426,-0.147 q -20.5731,0 -33.50476,-15.1359 -12.93166,-15.1359 -12.93166,-36.8846 z"
         style="font-style:italic;font-variant:normal;font-weight:normal;font-stretch:normal;font-family:'Averia Serif Libre';-inkscape-font-specification:'Averia Serif Libre Italic';fill:url(#linearGradient2886);fill-opacity:1;fill-rule:nonzero;stroke:none;stroke-width:0;stroke-miterlimit:4;stroke-dasharray:none"
         id="path853" />
      <path
         d="m 550.15475,931.50042 h -4.26157 q -6.17193,0 -14.10727,4.70242 -7.93533,4.70242 -15.42982,15.57677 -14.98897,21.7487 -14.98897,48.49369 v 7.3476 q 0,15.2828 7.05364,24.8346 7.05363,9.5518 16.01762,9.5518 h 2.93901 q 16.01763,0 30.27184,-21.8956 14.25422,-22.04263 14.25422,-47.17119 v -5.87803 q 0,-13.81336 -6.17193,-24.68771 -6.02498,-10.87435 -15.57677,-10.87435 z m -77.14911,73.62228 v -4.2616 l 0.14695,-2.20422 q 0,-14.10727 6.75974,-30.56574 6.61278,-16.45848 18.07493,-27.92063 23.80601,-23.80601 51.28579,-23.80601 l 2.20426,-0.14695 q 21.45479,0 34.97426,14.40116 13.66641,14.25422 13.66641,37.76633 v 4.40852 q 0,33.06394 -24.09991,59.66194 -9.5518,10.5805 -23.80601,17.7811 -14.25422,7.0536 -28.36148,7.0536 h -2.20426 l -2.20426,-0.147 q -20.5731,0 -33.50476,-15.1359 -12.93166,-15.1359 -12.93166,-36.8846 z"
         style="font-style:italic;font-variant:normal;font-weight:normal;font-stretch:normal;font-family:'Averia Serif Libre';-inkscape-font-specification:'Averia Serif Libre Italic';fill:url(#linearGradient2886);fill-opacity:1;fill-rule:nonzero;stroke:none;stroke-width:0;stroke-miterlimit:4;stroke-dasharray:none"
         id="path855" />
    </g>
  </g>
</svg>
